{
	"asset":{
		"generator":"Khronos glTF Blender I/O v3.6.27",
		"version":"2.0"
	},
	"extensionsUsed":[
		"KHR_materials_emissive_strength"
	],
	"scene":0,
	"scenes":[
		{
			"name":"Scene",
			"nodes":[
				0,
				1,
				2,
				3,
				4,
				5,
				6
			]
		}
	],
	"nodes":[
		{
			"mesh":0,
			"name":"Torus",
			"rotation":[
				0.657004177570343,
				0.011016439646482468,
				0.0035235444083809853,
				0.753798246383667
			],
			"scale":[
				0.1354176104068756,
				0.1354176104068756,
				0.1354176104068756
			],
			"translation":[
				-0.020337268710136414,
				2.3406617641448975,
				0.7624256014823914
			]
		},
		{
			"mesh":1,
			"name":"YEUX",
			"rotation":[
				-0.19991938769817352,
				-0.12034326046705246,
				0.010311947204172611,
				0.9723391532897949
			],
			"scale":[
				-0.17169098556041718,
				-0.3071507215499878,
				-0.09831328690052032
			],
			"translation":[
				-0.33720242977142334,
				2.5989155769348145,
				0.6077080965042114
			]
		},
		{
			"mesh":2,
			"name":"star.001",
			"rotation":[
				0.5963411927223206,
				0.14065444469451904,
				-0.057745311409235,
				0.7881998419761658
			],
			"scale":[
				0.2208091765642166,
				0.4532839357852936,
				0.21024131774902344
			],
			"translation":[
				-0.029069118201732635,
				0.8233946561813354,
				-0.5419912934303284
			]
		},
		{
			"mesh":3,
			"name":"tete",
			"translation":[
				-0.02740764617919922,
				2.389885425567627,
				0
			]
		},
		{
			"mesh":4,
			"name":"Roundcube.003",
			"scale":[
				-0.07434265315532684,
				-0.0585792139172554,
				-0.07434265315532684
			],
			"translation":[
				-0.026939190924167633,
				2.380551815032959,
				0.7225911617279053
			]
		},
		{
			"mesh":5,
			"name":"star",
			"rotation":[
				0.6945011019706726,
				-0.1329217255115509,
				-0.1329217553138733,
				0.6945011615753174
			],
			"scale":[
				1.0289967060089111,
				1.4191224575042725,
				1.0289967060089111
			],
			"translation":[
				1.1497774124145508,
				4.568411827087402,
				-0.10388164222240448
			]
		},
		{
			"mesh":6,
			"name":"corps",
			"rotation":[
				-0.6559697985649109,
				0.19015678763389587,
				0.18315047025680542,
				0.7071068286895752
			],
			"scale":[
				0.7340912222862244,
				0.8123146891593933,
				0.9122074246406555
			],
			"translation":[
				-0.20313867926597595,
				0.30153873562812805,
				-0.36380332708358765
			]
		}
	],
	"materials":[
		{
			"doubleSided":true,
			"name":"Material.002",
			"pbrMetallicRoughness":{
				"baseColorFactor":[
					0.3501523733139038,
					0.40348362922668457,
					0.8970926403999329,
					1
				],
				"metallicFactor":0,
				"roughnessFactor":0.5
			}
		},
		{
			"doubleSided":true,
			"name":"bunny",
			"pbrMetallicRoughness":{
				"baseColorTexture":{
					"index":0
				},
				"metallicFactor":0,
				"roughnessFactor":0.5
			}
		},
		{
			"doubleSided":true,
			"emissiveFactor":[
				0.7636420726776123,
				1,
				0.1620224565267563
			],
			"extensions":{
				"KHR_materials_emissive_strength":{
					"emissiveStrength":30
				}
			},
			"name":"star material.001",
			"pbrMetallicRoughness":{
				"baseColorFactor":[
					0,
					0,
					0,
					1
				]
			}
		},
		{
			"doubleSided":true,
			"emissiveFactor":[
				0.7643115520477295,
				1,
				0.15902292728424072
			],
			"extensions":{
				"KHR_materials_emissive_strength":{
					"emissiveStrength":20
				}
			},
			"name":"star material",
			"pbrMetallicRoughness":{
				"baseColorFactor":[
					0,
					0,
					0,
					1
				]
			}
		},
		{
			"doubleSided":true,
			"name":"bunny_body",
			"pbrMetallicRoughness":{
				"baseColorFactor":[
					0.800000011920929,
					0.800000011920929,
					0.800000011920929,
					1
				],
				"metallicFactor":0,
				"roughnessFactor":0.5
			}
		}
	],
	"meshes":[
		{
			"name":"Torus",
			"primitives":[
				{
					"attributes":{
						"POSITION":0,
						"NORMAL":1,
						"TEXCOORD_0":2
					},
					"indices":3,
					"material":0
				}
			]
		},
		{
			"name":"Roundcube.002",
			"primitives":[
				{
					"attributes":{
						"POSITION":4,
						"NORMAL":5,
						"TEXCOORD_0":6
					},
					"indices":7,
					"material":1
				}
			]
		},
		{
			"name":"Circle.001",
			"primitives":[
				{
					"attributes":{
						"POSITION":8,
						"NORMAL":9,
						"TEXCOORD_0":10
					},
					"indices":11,
					"material":2
				}
			]
		},
		{
			"name":"Roundcube",
			"primitives":[
				{
					"attributes":{
						"POSITION":12,
						"NORMAL":13,
						"TEXCOORD_0":14
					},
					"indices":15,
					"material":1
				}
			]
		},
		{
			"name":"Roundcube.003",
			"primitives":[
				{
					"attributes":{
						"POSITION":16,
						"NORMAL":17
					},
					"indices":18,
					"material":0
				}
			]
		},
		{
			"name":"Circle",
			"primitives":[
				{
					"attributes":{
						"POSITION":19,
						"NORMAL":20,
						"TEXCOORD_0":21
					},
					"indices":22,
					"material":3
				}
			]
		},
		{
			"name":"Roundcube.001",
			"primitives":[
				{
					"attributes":{
						"POSITION":23,
						"NORMAL":24
					},
					"indices":25,
					"material":4
				}
			]
		}
	],
	"textures":[
		{
			"sampler":0,
			"source":0
		}
	],
	"images":[
		{
			"bufferView":8,
			"mimeType":"image/png",
			"name":"Untitled"
		}
	],
	"accessors":[
		{
			"bufferView":0,
			"componentType":5126,
			"count":17479,
			"max":[
				1.128607153892517,
				0.19367754459381104,
				1.190230131149292
			],
			"min":[
				-1.1272363662719727,
				-0.19367752969264984,
				0.21464930474758148
			],
			"type":"VEC3"
		},
		{
			"bufferView":1,
			"componentType":5126,
			"count":17479,
			"type":"VEC3"
		},
		{
			"bufferView":2,
			"componentType":5126,
			"count":17479,
			"type":"VEC2"
		},
		{
			"bufferView":3,
			"componentType":5123,
			"count":99072,
			"type":"SCALAR"
		},
		{
			"bufferView":4,
			"componentType":5126,
			"count":1474,
			"max":[
				0.9537639617919922,
				0.9537639617919922,
				2.1944804191589355
			],
			"min":[
				-4.392092227935791,
				-1.009246587753296,
				-0.9577365517616272
			],
			"type":"VEC3"
		},
		{
			"bufferView":5,
			"componentType":5126,
			"count":1474,
			"type":"VEC3"
		},
		{
			"bufferView":6,
			"componentType":5126,
			"count":1474,
			"type":"VEC2"
		},
		{
			"bufferView":7,
			"componentType":5123,
			"count":8448,
			"type":"SCALAR"
		},
		{
			"bufferView":9,
			"componentType":5126,
			"count":22,
			"max":[
				0.9510564804077148,
				0.41263628005981445,
				0.8090170621871948
			],
			"min":[
				-0.9510565400123596,
				-0.23906004428863525,
				-1
			],
			"type":"VEC3"
		},
		{
			"bufferView":10,
			"componentType":5126,
			"count":22,
			"type":"VEC3"
		},
		{
			"bufferView":11,
			"componentType":5126,
			"count":22,
			"type":"VEC2"
		},
		{
			"bufferView":12,
			"componentType":5123,
			"count":120,
			"type":"SCALAR"
		},
		{
			"bufferView":13,
			"componentType":5126,
			"count":10010,
			"max":[
				1.47442626953125,
				2.827505111694336,
				0.7943738698959351
			],
			"min":[
				-1.4744261503219604,
				-0.8772143721580505,
				-0.866736888885498
			],
			"type":"VEC3"
		},
		{
			"bufferView":14,
			"componentType":5126,
			"count":10010,
			"type":"VEC3"
		},
		{
			"bufferView":15,
			"componentType":5126,
			"count":10010,
			"type":"VEC2"
		},
		{
			"bufferView":16,
			"componentType":5123,
			"count":58272,
			"type":"SCALAR"
		},
		{
			"bufferView":17,
			"componentType":5126,
			"count":6146,
			"max":[
				0.9577365517616272,
				0.9577365517616272,
				0.9577365517616272
			],
			"min":[
				-0.9577365517616272,
				-0.9577365517616272,
				-0.9577365517616272
			],
			"type":"VEC3"
		},
		{
			"bufferView":18,
			"componentType":5126,
			"count":6146,
			"type":"VEC3"
		},
		{
			"bufferView":19,
			"componentType":5123,
			"count":36864,
			"type":"SCALAR"
		},
		{
			"bufferView":20,
			"componentType":5126,
			"count":12810,
			"max":[
				0.9078548550605774,
				0.3862544894218445,
				1.791343331336975
			],
			"min":[
				-2.990778923034668,
				-0.21267829835414886,
				-0.954292893409729
			],
			"type":"VEC3"
		},
		{
			"bufferView":21,
			"componentType":5126,
			"count":12810,
			"type":"VEC3"
		},
		{
			"bufferView":22,
			"componentType":5126,
			"count":12810,
			"type":"VEC2"
		},
		{
			"bufferView":23,
			"componentType":5123,
			"count":65280,
			"type":"SCALAR"
		},
		{
			"bufferView":24,
			"componentType":5126,
			"count":10114,
			"max":[
				0.9513677954673767,
				0.16562235355377197,
				1.7197341918945312
			],
			"min":[
				-1.3086631298065186,
				-1.3048794269561768,
				0.03532887250185013
			],
			"type":"VEC3"
		},
		{
			"bufferView":25,
			"componentType":5126,
			"count":10114,
			"type":"VEC3"
		},
		{
			"bufferView":26,
			"componentType":5123,
			"count":60672,
			"type":"SCALAR"
		}
	],
	"bufferViews":[
		{
			"buffer":0,
			"byteLength":209748,
			"byteOffset":0,
			"target":34962
		},
		{
			"buffer":0,
			"byteLength":209748,
			"byteOffset":209748,
			"target":34962
		},
		{
			"buffer":0,
			"byteLength":139832,
			"byteOffset":419496,
			"target":34962
		},
		{
			"buffer":0,
			"byteLength":198144,
			"byteOffset":559328,
			"target":34963
		},
		{
			"buffer":0,
			"byteLength":17688,
			"byteOffset":757472,
			"target":34962
		},
		{
			"buffer":0,
			"byteLength":17688,
			"byteOffset":775160,
			"target":34962
		},
		{
			"buffer":0,
			"byteLength":11792,
			"byteOffset":792848,
			"target":34962
		},
		{
			"buffer":0,
			"byteLength":16896,
			"byteOffset":804640,
			"target":34963
		},
		{
			"buffer":0,
			"byteLength":496988,
			"byteOffset":821536
		},
		{
			"buffer":0,
			"byteLength":264,
			"byteOffset":1318524,
			"target":34962
		},
		{
			"buffer":0,
			"byteLength":264,
			"byteOffset":1318788,
			"target":34962
		},
		{
			"buffer":0,
			"byteLength":176,
			"byteOffset":1319052,
			"target":34962
		},
		{
			"buffer":0,
			"byteLength":240,
			"byteOffset":1319228,
			"target":34963
		},
		{
			"buffer":0,
			"byteLength":120120,
			"byteOffset":1319468,
			"target":34962
		},
		{
			"buffer":0,
			"byteLength":120120,
			"byteOffset":1439588,
			"target":34962
		},
		{
			"buffer":0,
			"byteLength":80080,
			"byteOffset":1559708,
			"target":34962
		},
		{
			"buffer":0,
			"byteLength":116544,
			"byteOffset":1639788,
			"target":34963
		},
		{
			"buffer":0,
			"byteLength":73752,
			"byteOffset":1756332,
			"target":34962
		},
		{
			"buffer":0,
			"byteLength":73752,
			"byteOffset":1830084,
			"target":34962
		},
		{
			"buffer":0,
			"byteLength":73728,
			"byteOffset":1903836,
			"target":34963
		},
		{
			"buffer":0,
			"byteLength":153720,
			"byteOffset":1977564,
			"target":34962
		},
		{
			"buffer":0,
			"byteLength":153720,
			"byteOffset":2131284,
			"target":34962
		},
		{
			"buffer":0,
			"byteLength":102480,
			"byteOffset":2285004,
			"target":34962
		},
		{
			"buffer":0,
			"byteLength":130560,
			"byteOffset":2387484,
			"target":34963
		},
		{
			"buffer":0,
			"byteLength":121368,
			"byteOffset":2518044,
			"target":34962
		},
		{
			"buffer":0,
			"byteLength":121368,
			"byteOffset":2639412,
			"target":34962
		},
		{
			"buffer":0,
			"byteLength":121344,
			"byteOffset":2760780,
			"target":34963
		}
	],
	"samplers":[
		{
			"magFilter":9729,
			"minFilter":9987
		}
	],
	"buffers":[
		{
			"byteLength":2882124,
			"uri":"data:application/octet-stream;base64,"
		}
	]
}
